<?xml version="1.0" encoding="iso-8859-1"?>
<!-- Generator: Adobe Illustrator 21.0.0, SVG Export Plug-In . SVG Version: 6.00 Build 0)  -->
<svg xmlns="http://www.w3.org/2000/svg" xmlns:xlink="http://www.w3.org/1999/xlink" version="1.1" id="Capa_1" x="0px" y="0px" viewBox="0 0 511.999 511.999" style="enable-background:new 0 0 511.999 511.999;" xml:space="preserve" width="512" height="512">
<g>
	<rect x="136.818" y="215.855" style="fill:#89BCF0;" width="238.362" height="233.232"/>
	<g>
		<rect x="355.398" y="244.379" style="fill:#CAE8F9;" width="49.701" height="172.343"/>
		<rect x="383.099" y="244.379" style="fill:#AADBF6;" width="22" height="172.343"/>
		<path style="fill:#FEDB41;" d="M421.666,438.232h-82.831V411.1c0-3.314,2.686-6,6-6h70.831c3.314,0,6,2.686,6,6V438.232z"/>
		<path style="fill:#FCBF29;" d="M399.666,438.232V411.1c0-3.314-2.686-6-6-6h22c3.314,0,6,2.686,6,6v27.132H399.666z"/>
		<path style="fill:#FEDB41;" d="M421.666,222.865h-82.831v27.132c0,3.314,2.686,6,6,6h70.831c3.314,0,6-2.686,6-6V222.865z"/>
		<path style="fill:#FCBF29;" d="M399.666,222.865v27.132c0,3.314-2.686,6-6,6h22c3.314,0,6-2.686,6-6v-27.132H399.666z"/>
	</g>
	<g>
		<rect x="106.896" y="244.379" style="fill:#CAE8F9;" width="49.7" height="172.343"/>
		<rect x="134.597" y="244.379" style="fill:#AADBF6;" width="22" height="172.343"/>
		<path style="fill:#FEDB41;" d="M173.164,438.232H90.333V411.1c0-3.314,2.686-6,6-6h70.831c3.314,0,6,2.686,6,6V438.232z"/>
		<path style="fill:#FCBF29;" d="M151.164,438.232V411.1c0-3.314-2.686-6-6-6h22c3.314,0,6,2.686,6,6v27.132H151.164z"/>
		<path style="fill:#FEDB41;" d="M173.164,222.865H90.333v27.132c0,3.314,2.686,6,6,6h70.831c3.314,0,6-2.686,6-6V222.865z"/>
		<path style="fill:#FCBF29;" d="M151.164,222.865v27.132c0,3.314-2.686,6-6,6h22c3.314,0,6-2.686,6-6v-27.132H151.164z"/>
	</g>
	<path style="fill:#CAE8F9;" d="M446.516,481.549H65.483v-37.317c0-3.314,2.686-6,6-6h369.033c3.314,0,6,2.686,6,6V481.549z"/>
	<path style="fill:#AADBF6;" d="M440.516,438.232h-22c3.314,0,6,2.686,6,6v37.317h22v-37.317   C446.516,440.918,443.83,438.232,440.516,438.232z"/>
	<g>
		<g>
			<path style="fill:#CAE8F9;" d="M454.799,156.597L259.6,10.2c-2.133-1.6-5.067-1.6-7.2,0L57.201,156.599v10.431h397.598V156.597z"/>
			<path style="fill:#AADBF6;" d="M405.099,156.599L259.513,51.453c-2.097-1.515-4.929-1.515-7.026,0L106.9,156.599v10.431h298.198     L405.099,156.599z"/>
			<path style="fill:#AADBF6;" d="M259.6,10.2c-2.133-1.6-5.067-1.6-7.2,0l-7.4,5.55l187.799,140.847v10.433h22v-10.433L259.6,10.2z     "/>
			<path style="fill:#89BCF0;" d="M259.513,51.453c-2.097-1.515-4.929-1.515-7.026,0L245,56.86l138.099,99.739l-0.001,10.431h22     l0.001-10.431L259.513,51.453z"/>
		</g>
		<path style="fill:#CAE8F9;" d="M454.798,189.731l-14.909,29.818c-1.016,2.033-3.094,3.317-5.367,3.317H77.477    c-2.273,0-4.35-1.284-5.367-3.317l-14.909-29.818v-13.066h397.597V189.731z"/>
		<path style="fill:#AADBF6;" d="M432.798,176.665v13.066l-14.909,29.818c-1.016,2.033-3.094,3.317-5.366,3.317h22    c2.273,0,4.35-1.284,5.366-3.317l14.909-29.818v-13.066H432.798z"/>
		<path style="fill:#FEDB41;" d="M465.366,156.599H46.634c-3.314,0-6,2.686-6,6v21.132c0,3.314,2.686,6,6,6h418.732    c3.314,0,6-2.686,6-6v-21.132C471.366,159.285,468.68,156.599,465.366,156.599z"/>
		<path style="fill:#FCBF29;" d="M465.366,156.599h-22c3.314,0,6,2.686,6,6v21.132c0,3.314-2.686,6-6,6h22c3.314,0,6-2.686,6-6    v-21.132C471.366,159.285,468.68,156.599,465.366,156.599z"/>
	</g>
	<path style="fill:#FEDB41;" d="M465.364,471.366H46.634c-3.314,0-6,2.686-6,6v27.132h430.73v-27.132   C471.364,474.052,468.678,471.366,465.364,471.366z"/>
	<path style="fill:#FCBF29;" d="M465.364,471.366h-22c3.314,0,6,2.686,6,6v27.132h22v-27.132   C471.364,474.052,468.678,471.366,465.364,471.366z"/>
	<g>
		<circle style="fill:#FEDB41;" cx="256" cy="330.549" r="74.549"/>
		<path style="fill:#FCBF29;" d="M256,255.999c-3.738,0-7.41,0.283-11,0.814c35.956,5.319,63.549,36.301,63.549,73.735    c0,37.434-27.594,68.417-63.549,73.735c3.59,0.531,7.262,0.814,11,0.814c41.173,0,74.549-33.377,74.549-74.549    C330.549,289.376,297.172,255.999,256,255.999z"/>
	</g>
</g>
<g>
	<path d="M487.931,496.999h-9.067v-25.633c0-4.142-3.357-7.5-7.5-7.5h-17.348v-25.634c0-4.142-3.357-7.5-7.5-7.5h-17.351V405.1   c0-4.142-3.357-7.5-7.5-7.5h-9.067V263.497h9.067c4.143,0,7.5-3.358,7.5-7.5v-25.632h9.065c2.841,0,5.438-1.605,6.708-4.146   l14.494-28.988h11.932c4.143,0,7.5-3.358,7.5-7.5v-33.132c0-4.142-3.357-7.5-7.5-7.5H457.3L260.5,1.5c-2.666-2-6.333-2-9,0   L54.701,149.098H40.634c-4.142,0-7.5,3.358-7.5,7.5v33.132c0,4.142,3.358,7.5,7.5,7.5h11.932l14.495,28.988   c1.271,2.541,3.867,4.146,6.708,4.146h9.066v25.632c0,4.142,3.358,7.5,7.5,7.5h9.063V397.6h-9.063c-4.142,0-7.5,3.358-7.5,7.5   v25.632H65.483c-4.142,0-7.5,3.358-7.5,7.5v25.634H40.634c-4.142,0-7.5,3.358-7.5,7.5v25.633h-9.066c-4.142,0-7.5,3.358-7.5,7.5   c0,4.142,3.358,7.5,7.5,7.5h59.547c4.142,0,7.5-3.358,7.5-7.5c0-4.142-3.358-7.5-7.5-7.5H48.134v-18.133h415.73v18.133H113.615   c-4.142,0-7.5,3.358-7.5,7.5c0,4.142,3.358,7.5,7.5,7.5h374.316c4.143,0,7.5-3.358,7.5-7.5   C495.431,500.357,492.074,496.999,487.931,496.999z M414.166,430.732h-67.832V412.6h9.054c0.003,0,0.007,0,0.01,0h49.701   c0.003,0,0.006,0,0.01,0h9.058V430.732z M362.897,397.6V263.5h34.701v134.1H362.897z M414.166,248.497h-67.832v-18.132h67.832   V248.497z M256,16.875L432.3,149.098h-24.776L260.391,42.836c-2.623-1.894-6.162-1.894-8.783,0L104.475,149.098H79.701L256,16.875z    M381.904,149.098H130.094L256,58.167L381.904,149.098z M48.134,164.098h9.064c0.003,0,0.006,0,0.009,0c0.002,0,0.004,0,0.006,0   h49.685c0.003,0,0.006,0,0.008,0c0.002,0,0.004,0,0.006,0h356.953v18.132H48.134V164.098z M69.337,197.231h373.327l-9.067,18.134   h-11.931h-82.832H173.166H90.335h-11.93L69.337,197.231z M97.835,230.365h67.831v18.132H97.835V230.365z M173.166,263.497   c4.142,0,7.5-3.358,7.5-7.5v-25.632h150.668v25.632c0,4.142,3.357,7.5,7.5,7.5h9.063V397.6h-9.063c-4.143,0-7.5,3.358-7.5,7.5   v25.632H180.666V405.1c0-4.142-3.358-7.5-7.5-7.5h-9.067V263.497H173.166z M114.398,263.5h34.701v134.1h-34.701V263.5z    M97.835,412.6h9.054c0.003,0,0.006,0,0.01,0h49.701c0.003,0,0.006,0,0.01,0h9.058v18.132H97.835V412.6z M72.983,445.732h17.352   h82.831h165.668h82.832h17.351v18.131H72.983V445.732z"/>
	<path d="M256.009,356.182c-0.003,0-0.006,0-0.009,0c-0.003,0-0.006,0-0.01,0c-4.995-0.005-9.057-4.07-9.057-9.066   c0-4.142-3.358-7.5-7.5-7.5c-4.142,0-7.5,3.358-7.5,7.5c0,10.652,6.959,19.704,16.567,22.864v1.985c0,4.142,3.358,7.5,7.5,7.5   c4.142,0,7.501-3.358,7.501-7.5v-1.985c9.607-3.16,16.565-12.212,16.565-22.864c0-13.271-10.796-24.067-24.066-24.067   c-0.008,0-0.016,0.001-0.024,0.001c-4.988-0.013-9.043-4.074-9.043-9.066c0-5,4.067-9.067,9.067-9.067   c4.999,0,9.066,4.067,9.066,9.067c0,4.142,3.358,7.5,7.5,7.5c4.143,0,7.5-3.358,7.5-7.5c0-10.652-6.958-19.704-16.565-22.864   v-1.987c0-4.142-3.358-7.5-7.501-7.5c-4.142,0-7.5,3.358-7.5,7.5v1.987c-9.608,3.16-16.567,12.212-16.567,22.864   c0,13.27,10.796,24.067,24.067,24.067c0.008,0,0.016-0.001,0.024-0.001c4.988,0.013,9.042,4.074,9.042,9.066   C265.065,352.112,261.003,356.176,256.009,356.182z"/>
	<path d="M256,412.598c45.242,0,82.05-36.808,82.05-82.05s-36.808-82.049-82.05-82.049s-82.049,36.807-82.049,82.049   S210.757,412.598,256,412.598z M256,263.499c36.972,0,67.05,30.078,67.05,67.049s-30.078,67.05-67.05,67.05   c-36.971,0-67.049-30.079-67.049-67.05S219.028,263.499,256,263.499z"/>
</g>















</svg>
