<?xml version="1.0" encoding="iso-8859-1"?>
<!-- Generator: Adobe Illustrator 19.0.0, SVG Export Plug-In . SVG Version: 6.00 Build 0)  -->
<svg version="1.1" id="Layer_1" xmlns="http://www.w3.org/2000/svg" xmlns:xlink="http://www.w3.org/1999/xlink" x="0px" y="0px"
	 viewBox="0 0 512 512" style="enable-background:new 0 0 512 512;" xml:space="preserve">
<polygon style="fill:#181818;" points="312.837,177.341 11.586,367.038 199.163,473.661 319.664,397.781 342.832,359.843 
	379.914,359.843 500.415,283.964 "/>
<polygon style="fill:#1F5985;" points="312.837,131.007 11.586,320.704 199.163,427.326 500.415,237.629 "/>
<polygon style="fill:#269AF2;" points="312.837,84.672 11.586,274.369 199.163,380.992 500.415,191.295 "/>
<polygon style="fill:#BEC8D6;" points="312.837,38.338 192.337,114.216 192.337,152.156 132.086,152.156 11.586,228.035 
	199.163,334.657 500.415,144.96 "/>
<polygon style="fill:#E6E2E0;" points="192.336,114.216 132.086,152.156 319.664,258.779 349.79,263.4 379.914,220.839 "/>
<polygon style="fill:#CCC4C1;" points="319.664,258.779 319.664,397.782 379.914,359.843 379.914,220.839 "/>
<g>
	<path style="fill:#11113F;" d="M391.408,219.481c-0.012-0.095-0.019-0.191-0.032-0.285c-0.067-0.468-0.156-0.935-0.283-1.396
		c-0.001-0.005-0.003-0.009-0.005-0.015c-0.118-0.431-0.269-0.856-0.439-1.277c-0.049-0.12-0.102-0.236-0.154-0.354
		c-0.134-0.303-0.284-0.602-0.446-0.897c-0.071-0.129-0.139-0.257-0.215-0.383c-0.041-0.068-0.073-0.139-0.116-0.207
		c-0.171-0.272-0.359-0.528-0.549-0.782c-0.036-0.048-0.065-0.097-0.101-0.144c-0.29-0.375-0.602-0.724-0.93-1.054
		c-0.061-0.063-0.129-0.12-0.192-0.181c-0.285-0.275-0.58-0.532-0.888-0.774c-0.079-0.061-0.155-0.123-0.236-0.182
		c-0.412-0.306-0.837-0.591-1.281-0.838l-170.656-97.005l98.258-61.873l164.727,93.633l-69.376,43.685
		c-5.414,3.408-7.039,10.561-3.63,15.974c3.408,5.414,10.56,7.039,15.974,3.63l85.749-53.995c3.447-2.17,5.501-5.991,5.408-10.064
		c-0.092-4.073-2.314-7.796-5.857-9.809L318.56,28.268c-3.71-2.111-8.282-2.006-11.896,0.268l-120.419,75.828
		c-0.024,0.015-0.05,0.031-0.074,0.046l-60.174,37.891c-0.028,0.017-0.056,0.035-0.082,0.052L5.414,218.233
		c-3.447,2.17-5.501,5.991-5.408,10.064c0.092,4.073,2.314,7.796,5.857,9.809l187.578,106.623c1.777,1.011,3.751,1.514,5.723,1.514
		c2.146,0,4.289-0.597,6.172-1.782l85.749-53.996c5.414-3.408,7.039-10.561,3.63-15.974c-3.407-5.414-10.561-7.041-15.974-3.63
		l-79.882,50.301L34.132,227.526l98.259-61.874l175.689,99.865v132.264c0,4.219,2.292,8.103,5.985,10.141
		c1.746,0.964,3.673,1.442,5.598,1.442c2.148,0,4.291-0.597,6.172-1.782l60.251-37.94c3.369-2.121,5.412-5.822,5.412-9.802V220.838
		c0-0.068-0.012-0.133-0.014-0.202C391.478,220.252,391.453,219.867,391.408,219.481z M331.248,376.8V258.779
		c0-4.167-2.238-8.011-5.86-10.07l-170.755-97.06l38.009-23.935l164.726,93.634l-14.423,9.082
		c-5.414,3.408-7.039,10.561-3.63,15.974c2.201,3.498,5.964,5.413,9.814,5.413c2.108,0,4.244-0.576,6.16-1.783l13.042-8.212v111.627
		L331.248,376.8z"/>
	<path style="fill:#11113F;" d="M494.244,181.493l-85.749,53.995c-5.414,3.408-7.039,10.561-3.63,15.974
		c2.201,3.498,5.964,5.413,9.814,5.413c2.108,0,4.244-0.576,6.16-1.783l85.749-53.995c5.414-3.408,7.039-10.561,3.63-15.974
		C506.81,179.709,499.657,178.083,494.244,181.493z"/>
	<path style="fill:#11113F;" d="M278.741,317.194l-79.882,50.301L17.31,264.3c-5.558-3.16-12.633-1.219-15.794,4.346
		c-3.161,5.561-1.216,12.633,4.346,15.794L193.44,391.063c1.777,1.011,3.751,1.514,5.723,1.514c2.146,0,4.289-0.597,6.172-1.782
		l85.749-53.996c5.414-3.408,7.039-10.561,3.63-15.974C291.308,315.41,284.154,313.784,278.741,317.194z"/>
	<path style="fill:#11113F;" d="M494.244,227.827l-85.749,53.995c-5.414,3.408-7.039,10.561-3.63,15.974
		c2.201,3.498,5.964,5.413,9.814,5.413c2.108,0,4.244-0.576,6.16-1.783l85.749-53.995c5.414-3.408,7.039-10.561,3.63-15.974
		C506.81,226.042,499.657,224.417,494.244,227.827z"/>
	<path style="fill:#11113F;" d="M278.741,363.528l-79.882,50.301L17.31,310.634c-5.558-3.16-12.633-1.219-15.794,4.346
		c-3.161,5.561-1.216,12.633,4.346,15.794L193.44,437.397c1.777,1.011,3.751,1.514,5.723,1.514c2.146,0,4.289-0.597,6.172-1.782
		l85.749-53.996c5.414-3.408,7.039-10.561,3.63-15.974C291.308,361.743,284.154,360.118,278.741,363.528z"/>
	<path style="fill:#11113F;" d="M494.244,274.162l-85.749,53.995c-5.414,3.408-7.039,10.561-3.63,15.974
		c2.201,3.498,5.964,5.413,9.814,5.413c2.108,0,4.244-0.576,6.16-1.783l85.749-53.995c5.414-3.408,7.039-10.561,3.63-15.974
		C506.81,272.378,499.657,270.753,494.244,274.162z"/>
	<path style="fill:#11113F;" d="M278.741,409.863l-79.882,50.301L17.31,356.969c-5.558-3.16-12.633-1.219-15.794,4.346
		c-3.161,5.561-1.216,12.633,4.346,15.794L193.44,483.732c1.777,1.011,3.751,1.514,5.723,1.514c2.146,0,4.289-0.597,6.172-1.782
		l85.749-53.996c5.414-3.408,7.039-10.561,3.63-15.974C291.308,408.079,284.154,406.453,278.741,409.863z"/>
</g>
<g>
</g>
<g>
</g>
<g>
</g>
<g>
</g>
<g>
</g>
<g>
</g>
<g>
</g>
<g>
</g>
<g>
</g>
<g>
</g>
<g>
</g>
<g>
</g>
<g>
</g>
<g>
</g>
<g>
</g>
</svg>
